<svg xmlns="http://www.w3.org/2000/svg" xmlns:xlink="http://www.w3.org/1999/xlink" width="500" zoomAndPan="magnify" viewBox="0 0 375 374.999991" height="500" preserveAspectRatio="xMidYMid meet" version="1.0"><defs><clipPath id="03a4469aa2"><path d="M 110.789062 94.914062 L 280.289062 94.914062 L 280.289062 337.164062 L 110.789062 337.164062 Z M 110.789062 94.914062 " clip-rule="nonzero"/></clipPath><clipPath id="24b64e23f0"><path d="M 65.566406 14 L 309.316406 14 L 309.316406 250 L 65.566406 250 Z M 65.566406 14 " clip-rule="nonzero"/></clipPath></defs><g clip-path="url(#03a4469aa2)"><path fill="#006e99" d="M 195.539062 94.914062 C 148.746094 94.914062 110.789062 132.886719 110.789062 179.699219 C 110.789062 243.292969 195.539062 337.164062 195.539062 337.164062 C 195.539062 337.164062 280.289062 243.292969 280.289062 179.699219 C 280.289062 132.886719 242.332031 94.914062 195.539062 94.914062 Z M 195.539062 209.980469 C 178.832031 209.980469 165.273438 196.414062 165.273438 179.699219 C 165.273438 162.984375 178.832031 149.417969 195.539062 149.417969 C 212.246094 149.417969 225.808594 162.984375 225.808594 179.699219 C 225.808594 196.414062 212.246094 209.980469 195.539062 209.980469 Z M 195.539062 209.980469 " fill-opacity="1" fill-rule="nonzero"/></g><g clip-path="url(#24b64e23f0)"><path fill="#16aee8" d="M 298.65625 119.488281 C 293.445312 115.597656 274.082031 96.476562 246.539062 118.492188 C 240.449219 122.917969 237.363281 125.800781 237.363281 125.800781 C 237.363281 125.800781 192.800781 44.246094 65.53125 14.261719 C 65.53125 14.261719 216.707031 74.898438 225.535156 249.53125 C 269.0625 197.691406 275.464844 134.425781 293.058594 131.605469 C 303.511719 129.929688 309.273438 135.808594 309.273438 135.808594 C 309.273438 135.808594 308.476562 126.820312 298.65625 119.488281 " fill-opacity="1" fill-rule="nonzero"/></g><path fill="#16aee8" d="M 219.308594 267.304688 L 218.429688 249.890625 C 217.695312 235.355469 215.9375 221.277344 213.195312 207.648438 L 135.136719 249.53125 C 135.136719 249.53125 173.863281 294.796875 219.308594 267.304688 " fill-opacity="1" fill-rule="nonzero"/><path fill="#0d8bbb" d="M 135.136719 249.53125 L 194.910156 336.992188 L 219.308594 267.304688 C 173.863281 294.796875 135.136719 249.53125 135.136719 249.53125 " fill-opacity="1" fill-rule="nonzero"/></svg>