<svg xmlns="http://www.w3.org/2000/svg" xmlns:xlink="http://www.w3.org/1999/xlink" width="500" zoomAndPan="magnify" viewBox="0 0 375 374.999991" height="500" preserveAspectRatio="xMidYMid meet" version="1.0"><defs><clipPath id="7fc6df6aa1"><path d="M 85.75 33.101562 L 301.507812 33.101562 L 301.507812 341.46875 L 85.75 341.46875 Z M 85.75 33.101562 " clip-rule="nonzero"/></clipPath><clipPath id="c5a32e444a"><path d="M 73.09375 49.226562 L 293.628906 49.226562 L 293.628906 263 L 73.09375 263 Z M 73.09375 49.226562 " clip-rule="nonzero"/></clipPath><clipPath id="dc4aa263aa"><path d="M 136 262 L 213 262 L 213 342.316406 L 136 342.316406 Z M 136 262 " clip-rule="nonzero"/></clipPath></defs><rect x="-37.5" width="450" fill="#ffffff" y="-37.499999" height="449.999989" fill-opacity="1"/><rect x="-37.5" width="450" fill="#ffffff" y="-37.499999" height="449.999989" fill-opacity="1"/><g clip-path="url(#7fc6df6aa1)"><path fill="#8c52ff" d="M 193.628906 33.101562 C 134.0625 33.101562 85.75 81.441406 85.75 141.03125 C 85.75 221.976562 193.628906 341.46875 193.628906 341.46875 C 193.628906 341.46875 301.507812 221.976562 301.507812 141.03125 C 301.507812 81.441406 253.195312 33.101562 193.628906 33.101562 Z M 193.628906 179.578125 C 172.359375 179.578125 155.101562 162.308594 155.101562 141.03125 C 155.101562 119.753906 172.359375 102.484375 193.628906 102.484375 C 214.898438 102.484375 232.15625 119.753906 232.15625 141.03125 C 232.15625 162.308594 214.898438 179.578125 193.628906 179.578125 Z M 193.628906 179.578125 " fill-opacity="1" fill-rule="nonzero"/></g><g clip-path="url(#c5a32e444a)"><path fill="#cb6ce6" d="M 283.984375 144.910156 C 279.269531 141.382812 261.75 124.042969 236.832031 144.007812 C 231.320312 148.019531 228.527344 150.632812 228.527344 150.632812 C 228.527344 150.632812 188.210938 76.691406 73.0625 49.5 C 73.0625 49.5 209.839844 104.480469 217.828125 262.816406 C 257.210938 215.816406 263 158.453125 278.921875 155.898438 C 288.375 154.378906 293.589844 159.710938 293.589844 159.710938 C 293.589844 159.710938 292.871094 151.558594 283.984375 144.910156 " fill-opacity="1" fill-rule="nonzero"/></g><path fill="#cb6ce6" d="M 212.195312 278.933594 L 211.398438 263.144531 C 210.734375 249.964844 209.144531 237.199219 206.660156 224.84375 L 136.039062 262.816406 C 136.039062 262.816406 171.074219 303.859375 212.195312 278.933594 " fill-opacity="1" fill-rule="nonzero"/><g clip-path="url(#dc4aa263aa)"><path fill="#4226d6" d="M 136.039062 262.816406 L 190.121094 342.117188 L 212.195312 278.933594 C 171.074219 303.859375 136.039062 262.816406 136.039062 262.816406 " fill-opacity="1" fill-rule="nonzero"/></g></svg>