<svg xmlns="http://www.w3.org/2000/svg" xmlns:xlink="http://www.w3.org/1999/xlink" width="500" zoomAndPan="magnify" viewBox="0 0 375 374.999991" height="500" preserveAspectRatio="xMidYMid meet" version="1.0"><defs><g/><clipPath id="3693b6cec3"><path d="M 70.734375 114.496094 L 149.4375 114.496094 L 149.4375 226.964844 L 70.734375 226.964844 Z M 70.734375 114.496094 " clip-rule="nonzero"/></clipPath><clipPath id="46d06549ce"><path d="M 49.765625 77 L 162.742188 77 L 162.742188 187 L 49.765625 187 Z M 49.765625 77 " clip-rule="nonzero"/></clipPath></defs><rect x="-37.5" width="450" fill="#ffffff" y="-37.499999" height="449.999989" fill-opacity="1"/><rect x="-37.5" width="450" fill="#ffffff" y="-37.499999" height="449.999989" fill-opacity="1"/><g clip-path="url(#3693b6cec3)"><path fill="#5271ff" d="M 110.085938 114.496094 C 88.355469 114.496094 70.734375 132.125 70.734375 153.859375 C 70.734375 183.382812 110.085938 226.964844 110.085938 226.964844 C 110.085938 226.964844 149.433594 183.382812 149.433594 153.859375 C 149.433594 132.125 131.8125 114.496094 110.085938 114.496094 Z M 110.085938 167.917969 C 102.328125 167.917969 96.03125 161.621094 96.03125 153.859375 C 96.03125 146.101562 102.328125 139.800781 110.085938 139.800781 C 117.84375 139.800781 124.136719 146.101562 124.136719 153.859375 C 124.136719 161.621094 117.84375 167.917969 110.085938 167.917969 Z M 110.085938 167.917969 " fill-opacity="1" fill-rule="nonzero"/></g><g clip-path="url(#46d06549ce)"><path fill="#fb73e5" d="M 157.804688 125.949219 C 155.386719 124.140625 146.414062 115.265625 133.644531 125.484375 C 130.824219 127.539062 129.394531 128.878906 129.394531 128.878906 C 129.394531 128.878906 108.738281 91.023438 49.75 77.105469 C 49.75 77.105469 119.820312 105.25 123.910156 186.308594 C 144.085938 162.246094 147.054688 132.882812 155.207031 131.574219 C 160.050781 130.792969 162.722656 133.523438 162.722656 133.523438 C 162.722656 133.523438 162.355469 129.351562 157.804688 125.949219 " fill-opacity="1" fill-rule="nonzero"/></g><path fill="#fb73e5" d="M 121.023438 194.558594 L 120.617188 186.476562 C 120.277344 179.730469 119.460938 173.195312 118.191406 166.871094 L 82.011719 186.308594 C 82.011719 186.308594 99.960938 207.320312 121.023438 194.558594 " fill-opacity="1" fill-rule="nonzero"/><path fill="#d622e6" d="M 82.011719 186.308594 L 109.714844 226.90625 L 121.023438 194.558594 C 99.960938 207.320312 82.011719 186.308594 82.011719 186.308594 " fill-opacity="1" fill-rule="nonzero"/><g fill="#5271ff" fill-opacity="1"><g transform="translate(141.366763, 225.244304)"><g><path d="M 64.035156 -8.097656 C 66.035156 -8.15625 68.035156 -8.714844 70.03125 -9.839844 C 72.023438 -10.964844 73.707031 -12.554688 75.085938 -14.605469 C 73.292969 -14.886719 71.921875 -15.34375 70.949219 -16.101562 C 69.976562 -16.859375 69.308594 -17.714844 68.859375 -18.789062 C 68.175781 -20.273438 68.023438 -22.011719 68.273438 -24.046875 C 68.523438 -26.085938 68.960938 -28.148438 69.574219 -30.292969 C 69.835938 -31.203125 70.253906 -32.382812 70.9375 -33.972656 C 71.566406 -35.492188 72.355469 -37.222656 73.367188 -39.164062 C 74.328125 -41.039062 75.40625 -42.992188 76.582031 -45.144531 C 77.757812 -47.296875 79.066406 -49.402344 80.4375 -51.515625 C 81.8125 -53.566406 83.207031 -55.496094 84.660156 -57.429688 C 86.113281 -59.367188 87.660156 -61.0625 89.238281 -62.511719 C 89.5625 -62.925781 89.816406 -63.398438 89.933594 -63.976562 C 90.058594 -64.492188 90.050781 -65.058594 89.921875 -65.605469 C 89.738281 -66.085938 89.492188 -66.554688 89.066406 -66.941406 C 88.640625 -67.328125 88.046875 -67.570312 87.414062 -67.617188 L 87.152344 -67.710938 C 85.359375 -65.984375 82.980469 -64.433594 80.136719 -63.082031 C 77.300781 -61.664062 74.085938 -60.765625 70.496094 -60.382812 C 66.296875 -59.867188 62.550781 -59.71875 59.269531 -59.875 C 55.992188 -60.035156 52.886719 -60.277344 49.960938 -60.609375 C 47.042969 -60.875 44.195312 -61.085938 41.417969 -61.246094 C 38.636719 -61.402344 35.757812 -61.363281 32.667969 -60.980469 C 28.839844 -60.507812 26.019531 -59.46875 24.078125 -57.914062 C 22.140625 -56.355469 20.972656 -54.644531 20.511719 -52.769531 C 20.125 -51.339844 20.039062 -50.011719 20.328125 -48.667969 C 20.621094 -47.324219 21.144531 -46.136719 21.890625 -45.164062 C 22.585938 -44.117188 23.488281 -43.414062 24.613281 -42.925781 C 25.679688 -42.429688 26.882812 -42.328125 28.210938 -42.742188 C 26.742188 -46.515625 26.667969 -49.640625 28 -52.0625 C 28.660156 -53.335938 29.71875 -54.40625 31.117188 -55.269531 C 32.515625 -56.132812 34.308594 -56.855469 36.378906 -57.363281 C 38.816406 -57.914062 41.605469 -58.195312 44.738281 -58.207031 C 47.875 -58.21875 51.261719 -58.195312 54.84375 -58.136719 C 52.710938 -57.121094 50.65625 -55.488281 48.660156 -53.359375 C 46.558594 -51.09375 44.476562 -48.640625 42.421875 -46.003906 C 40.371094 -43.304688 38.265625 -40.535156 36.238281 -37.652344 C 35.164062 -36.203125 34.144531 -34.820312 33.105469 -33.566406 C 32.078125 -32.246094 31.042969 -30.988281 30.050781 -29.863281 C 27.964844 -27.472656 25.886719 -25.523438 23.875 -24.019531 C 21.867188 -22.519531 19.886719 -21.773438 17.882812 -21.777344 C 16.507812 -21.730469 15.449219 -22.164062 14.601562 -22.9375 C 13.753906 -23.710938 13.066406 -24.691406 12.605469 -25.890625 C 12.089844 -27.019531 11.746094 -28.292969 11.578125 -29.652344 C 11.410156 -31.011719 11.320312 -32.253906 11.414062 -33.519531 C 9.914062 -32.457031 8.546875 -31.347656 7.324219 -30.066406 C 6.101562 -28.789062 5.011719 -27.460938 4.066406 -25.964844 C 3.0625 -24.460938 2.257812 -22.855469 1.714844 -21.160156 C 1.109375 -19.453125 0.75 -17.777344 0.71875 -16.019531 C 0.59375 -13.996094 0.890625 -12.089844 1.488281 -10.28125 C 2.089844 -8.472656 3.097656 -6.90625 4.378906 -5.683594 C 5.605469 -4.390625 7.160156 -3.457031 9 -2.804688 C 10.835938 -2.152344 12.980469 -2.042969 15.453125 -2.347656 C 17.429688 -2.589844 19.320312 -3.515625 21.238281 -5.257812 C 23.15625 -7 25.082031 -9.179688 27 -11.925781 C 28.925781 -14.609375 30.8125 -17.601562 32.65625 -20.964844 C 34.5 -24.328125 36.332031 -27.753906 38.214844 -31.3125 C 40.042969 -34.796875 41.9375 -38.230469 43.835938 -41.664062 C 45.675781 -45.027344 47.613281 -48.152344 49.53125 -50.894531 C 48.75 -49.105469 47.996094 -47.070312 47.335938 -44.792969 C 46.675781 -42.515625 46.09375 -40.125 45.582031 -37.675781 C 45.015625 -35.160156 44.570312 -32.660156 44.242188 -30.238281 C 43.921875 -27.75 43.710938 -25.40625 43.675781 -23.144531 C 43.582031 -20.875 43.585938 -18.804688 43.800781 -17.074219 C 44.011719 -15.34375 44.375 -13.945312 44.933594 -12.949219 C 46.390625 -14.886719 47.6875 -16.550781 48.886719 -18.015625 L 50.683594 -20.246094 L 51.601562 -21.425781 C 51.925781 -21.839844 52.253906 -22.257812 52.691406 -22.75 L 52.707031 -22.628906 L 54.117188 -24.433594 L 54.109375 -24.492188 C 56.675781 -28.074219 59.222656 -31.335938 61.679688 -34.273438 C 64.085938 -37.140625 66.554688 -40.015625 69.019531 -42.894531 C 67.550781 -40.578125 66.085938 -38.203125 64.742188 -35.90625 C 63.394531 -33.605469 62.171875 -31.324219 61.117188 -29.183594 C 60.011719 -26.980469 59.074219 -24.917969 58.3125 -22.945312 C 57.554688 -20.96875 57.027344 -19.148438 56.777344 -17.613281 C 56.488281 -15.882812 56.480469 -14.4375 56.753906 -13.21875 C 57.03125 -12 57.53125 -10.992188 58.25 -10.265625 C 58.910156 -9.472656 59.738281 -8.882812 60.785156 -8.511719 C 61.773438 -8.132812 62.855469 -8.015625 64.035156 -8.097656 Z M 59.269531 -33.472656 L 53.601562 -26.5625 C 53.355469 -27.535156 53.21875 -28.648438 53.128906 -29.890625 C 53.039062 -31.136719 53.0625 -32.457031 53.195312 -33.914062 C 53.347656 -36.753906 53.613281 -39.671875 54.066406 -42.613281 C 54.519531 -45.554688 55.046875 -48.378906 55.707031 -51.15625 L 57.175781 -58.050781 C 59.058594 -58.03125 61.003906 -58.019531 62.882812 -58.0625 C 64.765625 -58.046875 66.757812 -58.167969 68.742188 -58.347656 C 71.226562 -58.53125 73.566406 -58.882812 75.890625 -59.359375 C 78.214844 -59.832031 80.449219 -60.546875 82.582031 -61.5625 C 82.023438 -60.992188 81.539062 -60.367188 80.988281 -59.734375 C 80.4375 -59.105469 79.898438 -58.410156 79.355469 -57.714844 L 79.246094 -57.578125 C 78.042969 -56.171875 76.828125 -54.832031 75.683594 -53.4375 C 74.476562 -52.03125 73.332031 -50.636719 72.179688 -49.304688 C 69.828125 -46.503906 67.59375 -43.78125 65.414062 -41.128906 C 63.230469 -38.476562 61.21875 -35.972656 59.269531 -33.472656 Z M 59.269531 -33.472656 "/></g></g></g><g fill="#5271ff" fill-opacity="1"><g transform="translate(210.424083, 216.715142)"><g><path d="M 17.875 -38.082031 C 18.53125 -37.847656 19.425781 -38.210938 20.4375 -39.148438 C 20.886719 -39.582031 21.382812 -40.144531 21.800781 -40.824219 C 22.21875 -41.503906 22.636719 -42.179688 22.976562 -42.976562 C 23.316406 -43.769531 23.605469 -44.496094 23.820312 -45.273438 C 23.976562 -46.046875 24.140625 -46.757812 24.179688 -47.453125 C 24.207031 -48.773438 23.859375 -49.542969 23.203125 -49.777344 C 22.484375 -50 21.652344 -49.648438 20.636719 -48.707031 C 19.632812 -47.707031 18.789062 -46.410156 18.046875 -44.8125 L 18.039062 -44.875 C 17.636719 -44.070312 17.355469 -43.285156 17.203125 -42.511719 C 16.984375 -41.734375 16.882812 -41.03125 16.890625 -40.46875 C 16.84375 -39.835938 16.910156 -39.277344 17.089844 -38.863281 C 17.265625 -38.445312 17.488281 -38.160156 17.875 -38.082031 Z M 0.886719 -0.421875 C 1.921875 -0.175781 3.164062 -0.265625 4.742188 -0.710938 C 6.316406 -1.15625 7.960938 -2.050781 9.746094 -3.335938 C 11.480469 -4.554688 13.289062 -6.15625 15.042969 -8.191406 C 16.804688 -10.167969 18.507812 -12.632812 20.042969 -15.457031 C 19.601562 -14.964844 19.042969 -14.394531 18.316406 -13.675781 C 17.527344 -12.953125 16.730469 -12.289062 15.867188 -11.679688 C 14.945312 -11.003906 14.074219 -10.457031 13.191406 -9.96875 C 12.25 -9.476562 11.46875 -9.195312 10.84375 -9.179688 C 9.855469 -9.058594 9.253906 -9.359375 9.164062 -10.101562 C 9.078125 -10.78125 9.164062 -11.605469 9.546875 -12.59375 C 9.871094 -13.511719 10.265625 -14.375 10.777344 -15.316406 C 11.226562 -16.25 11.589844 -16.859375 11.789062 -17.261719 L 21.582031 -35.464844 L 12.875 -34.390625 L 0.667969 -12.375 C -0.355469 -10.492188 -1.089844 -8.832031 -1.488281 -7.46875 C -1.875 -6.039062 -2.046875 -4.890625 -1.933594 -3.964844 C -1.871094 -2.96875 -1.578125 -2.125 -1.070312 -1.5625 C -0.5625 -0.996094 0.117188 -0.578125 0.886719 -0.421875 Z M 0.886719 -0.421875 "/></g></g></g><g fill="#5271ff" fill-opacity="1"><g transform="translate(226.915988, 214.678252)"><g><path d="M 12.632812 -2.816406 C 14.441406 -3.917969 15.835938 -5.34375 16.863281 -7.164062 C 17.839844 -8.914062 18.550781 -10.757812 19.066406 -12.703125 C 19.515625 -14.640625 19.902344 -16.570312 20.160156 -18.546875 C 20.417969 -20.519531 20.613281 -22.488281 20.742188 -24.511719 C 20.75 -25.453125 20.820312 -26.402344 20.898438 -27.292969 C 20.917969 -28.171875 20.996094 -29.058594 21.074219 -29.945312 L 21.207031 -29.898438 C 21.722656 -30.277344 22.386719 -30.988281 23.269531 -31.972656 C 24.152344 -32.960938 24.949219 -34.125 25.675781 -35.34375 C 26.140625 -36.152344 26.542969 -36.957031 26.882812 -37.75 C 27.222656 -38.546875 27.449219 -39.261719 27.488281 -39.957031 C 27.535156 -40.589844 27.398438 -41.203125 27.089844 -41.664062 C 26.78125 -42.128906 26.234375 -42.5 25.453125 -42.71875 C 24.8125 -42.828125 24.140625 -42.679688 23.445312 -42.21875 C 22.75 -41.757812 22.132812 -41.179688 21.484375 -40.34375 C 20.769531 -39.503906 20.136719 -38.546875 19.519531 -37.46875 C 18.898438 -36.386719 18.332031 -35.378906 17.898438 -34.320312 C 17.402344 -33.257812 16.96875 -32.199219 16.652344 -31.21875 C 16.335938 -30.238281 16.179688 -29.46875 16.132812 -28.835938 C 15.328125 -28.234375 14.4375 -27.808594 13.535156 -27.511719 C 12.578125 -27.140625 11.667969 -26.902344 10.746094 -26.726562 C 9.828125 -26.550781 8.964844 -26.445312 8.082031 -26.460938 C 7.203125 -26.476562 6.386719 -26.5 5.621094 -26.59375 C 5.960938 -25.886719 6.515625 -25.453125 7.238281 -25.164062 C 7.964844 -24.878906 8.792969 -24.792969 9.789062 -24.851562 C 10.730469 -24.84375 11.710938 -25.027344 12.792969 -25.410156 C 13.820312 -25.726562 14.890625 -26.171875 16.019531 -26.6875 C 15.863281 -23.910156 15.589844 -21.554688 15.183594 -19.75 C 14.78125 -17.941406 14.277344 -16.4375 13.664062 -15.296875 C 12.960938 -13.894531 12.078125 -12.90625 11.027344 -12.273438 C 9.976562 -11.644531 9.003906 -11.398438 8.117188 -11.476562 C 7.171875 -11.484375 6.449219 -11.773438 5.933594 -12.398438 C 5.421875 -12.960938 5.378906 -13.835938 5.742188 -14.945312 C 6.007812 -15.855469 6.546875 -16.550781 7.234375 -17.074219 C 7.921875 -17.597656 8.609375 -17.621094 9.242188 -17.070312 C 9.558594 -17.550781 9.738281 -18.136719 9.65625 -18.816406 C 9.585938 -19.371094 9.332031 -19.90625 8.953125 -20.421875 C 8.523438 -20.871094 7.984375 -21.179688 7.320312 -21.476562 C 6.664062 -21.707031 5.90625 -21.738281 5.164062 -21.648438 C 3.503906 -21.378906 2.152344 -20.648438 1.046875 -19.445312 C -0.0585938 -18.242188 -0.886719 -16.824219 -1.445312 -15.25 C -2.003906 -13.675781 -2.175781 -12.023438 -2.085938 -10.277344 C -2.054688 -8.527344 -1.664062 -6.882812 -0.988281 -5.460938 C -0.3125 -4.039062 0.652344 -2.839844 2.011719 -2.003906 C 3.3125 -1.097656 4.925781 -0.734375 6.910156 -0.917969 C 8.839844 -1.027344 10.765625 -1.707031 12.632812 -2.816406 Z M 21.285156 -32.292969 C 21.417969 -33.25 21.550781 -34.207031 21.816406 -35.117188 C 22.078125 -36.027344 22.40625 -36.945312 22.851562 -37.878906 L 22.867188 -37.757812 C 23.0625 -38.21875 23.316406 -38.691406 23.582031 -39.097656 C 23.78125 -39.5 24.054688 -39.847656 24.316406 -40.257812 C 24.75 -40.8125 25.152344 -41.113281 25.460938 -41.148438 C 25.722656 -41.058594 25.816406 -40.816406 25.859375 -40.445312 C 25.828125 -40.191406 25.789062 -40 25.820312 -39.753906 C 25.789062 -39.496094 25.757812 -39.242188 25.726562 -38.988281 C 25.546875 -38.402344 25.425781 -37.882812 25.238281 -37.359375 C 25.050781 -36.835938 24.914062 -36.441406 24.8125 -36.242188 C 24.046875 -34.828125 22.894531 -33.496094 21.285156 -32.292969 Z M 21.285156 -32.292969 "/></g></g></g><g fill="#d622e6" fill-opacity="1"><g transform="translate(145.634585, 269.956391)"><g><path d="M 10.839844 -1.089844 C 11.476562 -3.550781 12.324219 -6.351562 13.4375 -9.5 C 14.554688 -12.648438 15.789062 -15.871094 17.199219 -19.183594 C 18.546875 -22.484375 20.078125 -25.808594 21.675781 -29.144531 C 23.277344 -32.414062 24.902344 -35.5 26.550781 -38.398438 C 28.199219 -41.300781 29.824219 -43.882812 31.417969 -46.214844 C 33.019531 -48.480469 34.492188 -50.292969 35.898438 -51.59375 C 37.582031 -53.183594 39.113281 -54 40.480469 -54.105469 C 41.792969 -54.140625 42.777344 -53.261719 43.515625 -51.34375 C 44.152344 -52.300781 44.664062 -53.242188 44.980469 -54.222656 C 45.246094 -55.132812 45.382812 -56.027344 45.339844 -56.902344 C 45.300781 -57.710938 45.085938 -58.4375 44.75 -59.148438 C 44.417969 -59.796875 43.917969 -60.300781 43.367188 -60.671875 C 42.019531 -61.445312 40.636719 -61.464844 39.097656 -60.707031 C 37.5625 -59.953125 35.90625 -58.621094 34.199219 -56.714844 C 32.488281 -54.8125 30.710938 -52.460938 28.871094 -49.597656 C 27.027344 -46.738281 25.164062 -43.558594 23.257812 -40.1875 C 21.363281 -36.753906 19.417969 -33.191406 17.5 -29.441406 C 15.578125 -25.691406 13.660156 -21.945312 11.847656 -18.332031 C 11.402344 -19.40625 11.164062 -20.820312 11.195312 -22.582031 C 11.230469 -24.339844 11.371094 -26.238281 11.683594 -28.285156 C 11.933594 -30.324219 12.367188 -32.382812 12.859375 -34.515625 C 13.347656 -36.644531 13.914062 -38.65625 14.503906 -40.488281 C 15.847656 -40.777344 17.136719 -41.503906 18.3125 -42.652344 C 19.425781 -43.792969 20.464844 -45.046875 21.285156 -46.53125 C 22.105469 -48.011719 22.792969 -49.539062 23.210938 -51.21875 C 23.640625 -52.839844 23.890625 -54.378906 23.84375 -55.75 C 23.800781 -57.125 23.460938 -58.339844 22.90625 -59.273438 C 22.292969 -60.199219 21.40625 -60.78125 20.191406 -60.945312 C 18.542969 -61.117188 17.027344 -60.679688 15.714844 -59.640625 C 14.335938 -58.589844 13.132812 -57.1875 12.09375 -55.429688 C 11.003906 -53.601562 10.074219 -51.480469 9.234375 -49.117188 C 8.40625 -46.695312 7.644531 -44.21875 7.023438 -41.632812 C 5.867188 -41.363281 4.863281 -41.367188 4.015625 -41.636719 C 3.101562 -41.902344 2.425781 -42.320312 1.839844 -43 C 1.058594 -43.71875 0.542969 -44.847656 0.300781 -46.320312 C 0.0546875 -47.796875 0.0664062 -49.238281 0.3125 -50.777344 C 0.507812 -52.242188 0.972656 -53.554688 1.703125 -54.773438 C 2.4375 -55.929688 3.355469 -56.609375 4.59375 -56.761719 C 2.964844 -57.75 1.421875 -58.0625 -0.09375 -57.625 C -1.605469 -57.1875 -2.875 -56.277344 -3.902344 -54.957031 C -4.871094 -53.648438 -5.519531 -52.3125 -5.847656 -50.894531 C -6.171875 -49.472656 -6.253906 -48.082031 -6.023438 -46.730469 C -5.792969 -45.378906 -5.324219 -44.121094 -4.617188 -42.953125 C -3.90625 -41.789062 -3.027344 -40.765625 -1.933594 -40.023438 C -0.835938 -39.28125 0.417969 -38.746094 1.832031 -38.484375 C 3.246094 -38.21875 4.734375 -38.339844 6.363281 -38.855469 C 5.574219 -37.125 4.832031 -35.027344 4.253906 -32.574219 C 3.679688 -30.117188 3.253906 -27.496094 2.953125 -24.824219 C 2.664062 -22.089844 2.5625 -19.382812 2.640625 -16.695312 C 2.730469 -13.945312 3.035156 -11.476562 3.679688 -9.296875 C 4.273438 -7.050781 5.125 -5.210938 6.3125 -3.726562 C 7.5 -2.242188 8.988281 -1.359375 10.839844 -1.089844 Z M 15.429688 -44.675781 C 15.800781 -46.230469 16.238281 -47.789062 16.792969 -49.363281 C 17.351562 -50.9375 17.871094 -52.316406 18.460938 -53.644531 C 18.996094 -54.902344 19.550781 -55.972656 20.140625 -56.800781 C 20.730469 -57.625 21.300781 -58.070312 21.792969 -58.132812 C 22.289062 -58.191406 22.574219 -57.914062 22.652344 -57.296875 C 22.726562 -56.679688 22.703125 -55.859375 22.507812 -54.894531 C 22.25 -53.925781 21.941406 -52.882812 21.453125 -51.757812 C 20.972656 -50.566406 20.414062 -49.496094 19.789062 -48.476562 C 19.160156 -47.460938 18.449219 -46.617188 17.722656 -45.902344 C 16.933594 -45.175781 16.171875 -44.769531 15.429688 -44.675781 Z M 15.429688 -44.675781 "/></g></g></g><g fill="#d622e6" fill-opacity="1"><g transform="translate(173.491985, 266.515767)"><g><path d="M 17.875 -38.082031 C 18.53125 -37.847656 19.425781 -38.210938 20.4375 -39.148438 C 20.886719 -39.582031 21.382812 -40.144531 21.800781 -40.824219 C 22.21875 -41.503906 22.636719 -42.179688 22.976562 -42.976562 C 23.316406 -43.769531 23.605469 -44.496094 23.820312 -45.273438 C 23.976562 -46.046875 24.140625 -46.757812 24.179688 -47.453125 C 24.207031 -48.773438 23.859375 -49.542969 23.203125 -49.777344 C 22.484375 -50 21.652344 -49.648438 20.636719 -48.707031 C 19.632812 -47.707031 18.789062 -46.410156 18.046875 -44.8125 L 18.039062 -44.875 C 17.636719 -44.070312 17.355469 -43.285156 17.203125 -42.511719 C 16.984375 -41.734375 16.882812 -41.03125 16.890625 -40.46875 C 16.84375 -39.835938 16.910156 -39.277344 17.089844 -38.863281 C 17.265625 -38.445312 17.488281 -38.160156 17.875 -38.082031 Z M 0.886719 -0.421875 C 1.921875 -0.175781 3.164062 -0.265625 4.742188 -0.710938 C 6.316406 -1.15625 7.960938 -2.050781 9.746094 -3.335938 C 11.480469 -4.554688 13.289062 -6.15625 15.042969 -8.191406 C 16.804688 -10.167969 18.507812 -12.632812 20.042969 -15.457031 C 19.601562 -14.964844 19.042969 -14.394531 18.316406 -13.675781 C 17.527344 -12.953125 16.730469 -12.289062 15.867188 -11.679688 C 14.945312 -11.003906 14.074219 -10.457031 13.191406 -9.96875 C 12.25 -9.476562 11.46875 -9.195312 10.84375 -9.179688 C 9.855469 -9.058594 9.253906 -9.359375 9.164062 -10.101562 C 9.078125 -10.78125 9.164062 -11.605469 9.546875 -12.59375 C 9.871094 -13.511719 10.265625 -14.375 10.777344 -15.316406 C 11.226562 -16.25 11.589844 -16.859375 11.789062 -17.261719 L 21.582031 -35.464844 L 12.875 -34.390625 L 0.667969 -12.375 C -0.355469 -10.492188 -1.089844 -8.832031 -1.488281 -7.46875 C -1.875 -6.039062 -2.046875 -4.890625 -1.933594 -3.964844 C -1.871094 -2.96875 -1.578125 -2.125 -1.070312 -1.5625 C -0.5625 -0.996094 0.117188 -0.578125 0.886719 -0.421875 Z M 0.886719 -0.421875 "/></g></g></g><g fill="#d622e6" fill-opacity="1"><g transform="translate(189.983893, 264.478877)"><g><path d="M 19.636719 -2.988281 L 19.414062 -2.773438 C 21.140625 -2.988281 22.8125 -3.695312 24.472656 -4.964844 C 26.082031 -6.167969 27.648438 -7.679688 29.066406 -9.421875 C 30.425781 -11.09375 31.640625 -12.9375 32.785156 -14.835938 C 33.933594 -16.734375 34.835938 -18.539062 35.519531 -20.128906 C 35.410156 -19.988281 35.296875 -19.914062 35.125 -19.765625 C 34.957031 -19.621094 34.792969 -19.410156 34.570312 -19.195312 C 34.074219 -18.632812 33.515625 -18.0625 32.898438 -17.484375 C 32.289062 -16.84375 31.613281 -16.195312 30.878906 -15.542969 C 29.3125 -14.03125 28.003906 -12.929688 26.832031 -12.28125 C 26.25 -11.898438 25.765625 -11.773438 25.441406 -11.859375 C 25.117188 -11.945312 25.007812 -12.308594 25.117188 -12.949219 C 25.164062 -13.582031 25.597656 -14.636719 26.3125 -15.980469 L 37.5 -37.621094 L 28.789062 -36.542969 L 25.535156 -30.371094 C 25.382812 -31.609375 25.078125 -32.574219 24.539062 -33.386719 C 24.007812 -34.132812 23.375 -34.683594 22.570312 -35.085938 C 21.714844 -35.417969 20.757812 -35.550781 19.753906 -35.554688 C 18.757812 -35.492188 17.660156 -35.230469 16.582031 -34.847656 C 15.746094 -34.492188 14.804688 -34 13.828125 -33.253906 C 12.855469 -32.507812 11.890625 -31.699219 10.882812 -30.695312 C 9.878906 -29.691406 8.828125 -28.558594 7.792969 -27.304688 C 6.753906 -26.046875 5.78125 -24.796875 4.820312 -23.425781 C 3.644531 -21.773438 2.59375 -20.136719 1.671875 -18.457031 C 0.695312 -16.707031 -0.101562 -15.039062 -0.777344 -13.386719 C -1.257812 -12.199219 -1.652344 -10.832031 -1.839844 -9.304688 C -2.027344 -7.777344 -2.042969 -6.394531 -1.761719 -5.113281 C -1.53125 -3.761719 -1.023438 -2.695312 -0.289062 -1.84375 C 0.441406 -0.996094 1.550781 -0.628906 3.097656 -0.820312 C 5.199219 -1.082031 7.367188 -1.789062 9.46875 -3.050781 C 10.464844 -3.613281 11.386719 -4.292969 12.234375 -5.023438 C 13.085938 -5.753906 13.796875 -6.597656 14.316406 -7.476562 C 14.367188 -6.039062 14.882812 -4.910156 15.871094 -4.03125 C 16.796875 -3.140625 18.03125 -2.792969 19.636719 -2.988281 Z M 8.351562 -9.5625 C 7.757812 -9.800781 7.324219 -10.25 7.050781 -10.96875 C 6.773438 -11.6875 6.78125 -12.628906 7.007812 -13.847656 C 7.179688 -14.996094 7.636719 -16.371094 8.425781 -18.097656 C 9.222656 -19.765625 10.363281 -21.726562 11.839844 -23.976562 C 12.472656 -24.933594 13.109375 -25.890625 13.867188 -26.863281 C 14.5625 -27.824219 15.335938 -28.671875 16.109375 -29.523438 C 16.828125 -30.300781 17.625 -30.964844 18.503906 -31.449219 C 19.324219 -31.925781 20.234375 -32.164062 21.222656 -32.285156 C 21.789062 -32.292969 22.242188 -32.160156 22.589844 -31.890625 C 22.882812 -31.550781 23.121094 -31.140625 23.3125 -30.601562 C 23.445312 -30.050781 23.519531 -29.433594 23.488281 -28.675781 C 23.457031 -27.921875 23.425781 -27.164062 23.277344 -26.332031 L 23.339844 -26.339844 L 18.011719 -16.648438 C 17.609375 -15.847656 17.03125 -14.960938 16.394531 -14.003906 C 15.699219 -13.039062 14.933594 -12.128906 14.089844 -11.335938 C 13.195312 -10.472656 12.265625 -9.855469 11.308594 -9.488281 C 10.296875 -9.046875 9.292969 -9.050781 8.351562 -9.5625 Z M 8.351562 -9.5625 "/></g></g></g><g fill="#d622e6" fill-opacity="1"><g transform="translate(221.918045, 260.534739)"><g><path d="M 18.722656 -38.3125 C 19.378906 -38.078125 20.277344 -38.441406 21.289062 -39.378906 C 21.738281 -39.8125 22.230469 -40.375 22.648438 -41.054688 C 23.066406 -41.734375 23.484375 -42.410156 23.828125 -43.207031 C 24.167969 -44 24.453125 -44.726562 24.671875 -45.503906 C 24.828125 -46.277344 24.988281 -46.988281 25.03125 -47.683594 C 25.054688 -49.003906 24.707031 -49.773438 24.050781 -50.007812 C 23.335938 -50.230469 22.5 -49.878906 21.488281 -48.9375 C 20.476562 -47.996094 19.632812 -46.703125 18.886719 -45.105469 C 18.484375 -44.300781 18.207031 -43.515625 18.050781 -42.742188 C 17.832031 -41.964844 17.730469 -41.261719 17.738281 -40.699219 C 17.691406 -40.066406 17.761719 -39.507812 17.9375 -39.09375 C 18.113281 -38.675781 18.339844 -38.390625 18.722656 -38.3125 Z M -20.492188 34.140625 C -18.933594 33.570312 -17.355469 32.625 -15.78125 31.175781 C -14.203125 29.726562 -12.65625 28.027344 -11.15625 25.960938 C -9.648438 23.957031 -8.324219 21.976562 -7.0625 20 C -5.800781 18.027344 -4.71875 16.136719 -3.742188 14.386719 C -3.277344 13.574219 -2.867188 12.835938 -2.511719 12.164062 C -2.15625 11.492188 -1.847656 10.953125 -1.527344 10.472656 C -0.195312 8.050781 1.179688 5.5 2.722656 2.738281 C 4.199219 -0.015625 5.726562 -2.902344 7.242188 -5.847656 C 8.761719 -8.796875 10.222656 -11.671875 11.75 -14.558594 C 13.21875 -17.375 14.628906 -20.183594 15.992188 -22.859375 C 16.648438 -24.132812 17.308594 -25.40625 17.910156 -26.609375 C 18.515625 -27.8125 19.058594 -29.007812 19.667969 -30.148438 C 20.226562 -31.222656 20.730469 -32.226562 21.242188 -33.164062 C 21.691406 -34.097656 22.09375 -34.902344 22.496094 -35.703125 L 13.785156 -34.628906 L 8.582031 -24.953125 C 6.695312 -21.460938 4.8125 -17.902344 2.878906 -14.277344 C 0.941406 -10.652344 -0.945312 -7.15625 -2.835938 -3.664062 L -8.039062 6.011719 C -12.347656 7.671875 -15.761719 9.472656 -18.398438 11.492188 C -21.148438 13.585938 -23.152344 15.652344 -24.484375 17.574219 C -25.867188 19.5625 -26.773438 21.367188 -27.261719 22.996094 C -27.804688 24.695312 -28.054688 26.230469 -28.003906 27.667969 C -27.953125 29.101562 -27.675781 30.324219 -27.105469 31.382812 C -26.90625 31.984375 -26.527344 32.5 -26.097656 32.949219 C -25.664062 33.398438 -25.179688 33.777344 -24.640625 34.085938 C -24.097656 34.398438 -23.457031 34.507812 -22.765625 34.546875 C -22.070312 34.585938 -21.328125 34.492188 -20.492188 34.140625 Z M -22.308594 25.019531 C -23.203125 24.878906 -23.761719 24.445312 -23.851562 23.703125 C -23.941406 22.964844 -23.855469 22.136719 -23.46875 21.210938 C -23.136719 20.355469 -22.679688 19.484375 -22.160156 18.605469 C -21.644531 17.726562 -21.109375 16.96875 -20.613281 16.40625 C -19.066406 14.710938 -17.304688 13.238281 -15.328125 11.988281 C -13.347656 10.742188 -11.417969 9.625 -9.46875 8.632812 L -9.402344 8.6875 L -10.679688 11.039062 C -10.988281 11.578125 -11.289062 12.179688 -11.597656 12.722656 C -11.902344 13.324219 -12.265625 13.933594 -12.628906 14.542969 C -13.347656 15.824219 -14.128906 17.109375 -14.972656 18.40625 C -15.808594 19.765625 -16.605469 20.929688 -17.425781 21.90625 C -18.300781 22.957031 -19.203125 23.757812 -20.007812 24.359375 C -20.8125 24.960938 -21.601562 25.183594 -22.308594 25.019531 Z M -22.308594 25.019531 "/></g></g></g><g fill="#d622e6" fill-opacity="1"><g transform="translate(237.545179, 258.604656)"><g><path d="M 4.222656 -0.835938 C 5.753906 -0.648438 7.234375 -0.832031 8.734375 -1.390625 C 10.230469 -1.953125 11.707031 -2.699219 13.144531 -3.757812 C 14.527344 -4.742188 15.828125 -5.90625 17.109375 -7.191406 C 18.394531 -8.480469 19.601562 -9.882812 20.667969 -11.394531 C 21.683594 -12.835938 22.625 -14.335938 23.507812 -15.824219 C 24.328125 -17.304688 25.039062 -18.644531 25.628906 -19.972656 C 23.167969 -16.535156 20.84375 -14.050781 18.769531 -12.539062 C 16.699219 -11.03125 14.90625 -10.308594 13.457031 -10.378906 C 11.949219 -10.382812 10.980469 -11.140625 10.410156 -12.699219 C 9.847656 -14.199219 9.898438 -16.335938 10.566406 -19.054688 C 10.738281 -19.703125 10.90625 -20.351562 11.078125 -21 C 11.257812 -21.585938 11.496094 -22.179688 11.738281 -22.773438 C 11.644531 -21.507812 11.933594 -20.664062 12.550781 -20.238281 C 13.105469 -19.804688 13.886719 -19.589844 14.8125 -19.703125 L 14.652344 -19.496094 C 16.394531 -19.585938 18.0625 -20.292969 19.539062 -21.542969 C 21.023438 -22.726562 22.160156 -24.1875 23.082031 -25.867188 C 23.4375 -26.539062 23.765625 -27.457031 24.121094 -28.628906 C 24.476562 -29.804688 24.65625 -30.890625 24.644531 -32.019531 C 24.636719 -33.082031 24.335938 -33.988281 23.867188 -34.746094 C 23.34375 -35.433594 22.425781 -35.757812 21.175781 -35.730469 C 19.066406 -35.53125 17.019531 -34.839844 15.148438 -33.730469 C 13.28125 -32.621094 11.503906 -31.273438 9.941406 -29.699219 C 8.324219 -28.058594 6.910156 -26.316406 5.632812 -24.464844 C 4.363281 -22.550781 3.390625 -20.800781 2.582031 -19.195312 C 1.421875 -16.921875 0.507812 -14.675781 -0.0976562 -12.46875 C -0.765625 -10.253906 -0.960938 -8.285156 -0.683594 -6.5625 C -0.441406 -4.585938 0.175781 -3.15625 1.039062 -2.261719 C 1.902344 -1.363281 2.957031 -0.929688 4.222656 -0.835938 Z M 14.0625 -22.746094 C 13.257812 -22.648438 12.773438 -23.027344 12.617188 -23.761719 C 12.402344 -24.484375 12.785156 -25.472656 13.679688 -26.839844 C 14.878906 -28.804688 16.148438 -30.214844 17.484375 -31.070312 C 18.769531 -31.855469 19.894531 -32.371094 20.808594 -32.609375 L 20.871094 -32.617188 C 22.226562 -32.785156 22.792969 -32.292969 22.566406 -31.070312 C 22.394531 -30.421875 22.101562 -29.761719 21.691406 -29.019531 C 21.28125 -28.277344 20.746094 -27.523438 20.203125 -26.828125 C 19.121094 -25.441406 17.992188 -24.421875 16.878906 -23.785156 C 15.714844 -23.074219 14.816406 -22.714844 14.0625 -22.746094 Z M 14.0625 -22.746094 "/></g></g></g><g fill="#d622e6" fill-opacity="1"><g transform="translate(259.966908, 255.835383)"><g><path d="M 12.632812 -2.816406 C 14.441406 -3.917969 15.835938 -5.34375 16.863281 -7.164062 C 17.839844 -8.914062 18.550781 -10.757812 19.066406 -12.703125 C 19.515625 -14.640625 19.902344 -16.570312 20.160156 -18.546875 C 20.417969 -20.519531 20.613281 -22.488281 20.742188 -24.511719 C 20.75 -25.453125 20.820312 -26.402344 20.898438 -27.292969 C 20.917969 -28.171875 20.996094 -29.058594 21.074219 -29.945312 L 21.207031 -29.898438 C 21.722656 -30.277344 22.386719 -30.988281 23.269531 -31.972656 C 24.152344 -32.960938 24.949219 -34.125 25.675781 -35.34375 C 26.140625 -36.152344 26.542969 -36.957031 26.882812 -37.75 C 27.222656 -38.546875 27.449219 -39.261719 27.488281 -39.957031 C 27.535156 -40.589844 27.398438 -41.203125 27.089844 -41.664062 C 26.78125 -42.128906 26.234375 -42.5 25.453125 -42.71875 C 24.8125 -42.828125 24.140625 -42.679688 23.445312 -42.21875 C 22.75 -41.757812 22.132812 -41.179688 21.484375 -40.34375 C 20.769531 -39.503906 20.136719 -38.546875 19.519531 -37.46875 C 18.898438 -36.386719 18.332031 -35.378906 17.898438 -34.320312 C 17.402344 -33.257812 16.96875 -32.199219 16.652344 -31.21875 C 16.335938 -30.238281 16.179688 -29.46875 16.132812 -28.835938 C 15.328125 -28.234375 14.4375 -27.808594 13.535156 -27.511719 C 12.578125 -27.140625 11.667969 -26.902344 10.746094 -26.726562 C 9.828125 -26.550781 8.964844 -26.445312 8.082031 -26.460938 C 7.203125 -26.476562 6.386719 -26.5 5.621094 -26.59375 C 5.960938 -25.886719 6.515625 -25.453125 7.238281 -25.164062 C 7.964844 -24.878906 8.792969 -24.792969 9.789062 -24.851562 C 10.730469 -24.84375 11.710938 -25.027344 12.792969 -25.410156 C 13.820312 -25.726562 14.890625 -26.171875 16.019531 -26.6875 C 15.863281 -23.910156 15.589844 -21.554688 15.183594 -19.75 C 14.78125 -17.941406 14.277344 -16.4375 13.664062 -15.296875 C 12.960938 -13.894531 12.078125 -12.90625 11.027344 -12.273438 C 9.976562 -11.644531 9.003906 -11.398438 8.117188 -11.476562 C 7.171875 -11.484375 6.449219 -11.773438 5.933594 -12.398438 C 5.421875 -12.960938 5.378906 -13.835938 5.742188 -14.945312 C 6.007812 -15.855469 6.546875 -16.550781 7.234375 -17.074219 C 7.921875 -17.597656 8.609375 -17.621094 9.242188 -17.070312 C 9.558594 -17.550781 9.738281 -18.136719 9.65625 -18.816406 C 9.585938 -19.371094 9.332031 -19.90625 8.953125 -20.421875 C 8.523438 -20.871094 7.984375 -21.179688 7.320312 -21.476562 C 6.664062 -21.707031 5.90625 -21.738281 5.164062 -21.648438 C 3.503906 -21.378906 2.152344 -20.648438 1.046875 -19.445312 C -0.0585938 -18.242188 -0.886719 -16.824219 -1.445312 -15.25 C -2.003906 -13.675781 -2.175781 -12.023438 -2.085938 -10.277344 C -2.054688 -8.527344 -1.664062 -6.882812 -0.988281 -5.460938 C -0.3125 -4.039062 0.652344 -2.839844 2.011719 -2.003906 C 3.3125 -1.097656 4.925781 -0.734375 6.910156 -0.917969 C 8.839844 -1.027344 10.765625 -1.707031 12.632812 -2.816406 Z M 21.285156 -32.292969 C 21.417969 -33.25 21.550781 -34.207031 21.816406 -35.117188 C 22.078125 -36.027344 22.40625 -36.945312 22.851562 -37.878906 L 22.867188 -37.757812 C 23.0625 -38.21875 23.316406 -38.691406 23.582031 -39.097656 C 23.78125 -39.5 24.054688 -39.847656 24.316406 -40.257812 C 24.75 -40.8125 25.152344 -41.113281 25.460938 -41.148438 C 25.722656 -41.058594 25.816406 -40.816406 25.859375 -40.445312 C 25.828125 -40.191406 25.789062 -40 25.820312 -39.753906 C 25.789062 -39.496094 25.757812 -39.242188 25.726562 -38.988281 C 25.546875 -38.402344 25.425781 -37.882812 25.238281 -37.359375 C 25.050781 -36.835938 24.914062 -36.441406 24.8125 -36.242188 C 24.046875 -34.828125 22.894531 -33.496094 21.285156 -32.292969 Z M 21.285156 -32.292969 "/></g></g></g></svg>